{
    "asset" : {
        "generator" : "Khronos glTF Blender I/O v3.3.27",
        "version" : "2.0"
    },
    "extensionsUsed" : [
        "KHR_materials_specular",
        "KHR_materials_ior"
    ],
    "scene" : 0,
    "scenes" : [
        {
            "name" : "Scene",
            "nodes" : [
                0,
                1
            ]
        }
    ],
    "nodes" : [
        {
            "mesh" : 0,
            "name" : "Sphere",
            "rotation" : [
                0,
                -0.0052511077374219894,
                0,
                0.9999862313270569
            ],
            "scale" : [
                0.00930620264261961,
                0.009306203573942184,
                0.00930620264261961
            ],
            "translation" : [
                -0.0006401252467185259,
                0.2274274379014969,
                0.0010214298963546753
            ]
        },
        {
            "mesh" : 1,
            "name" : "_1_ARD-node",
            "rotation" : [
                0.7071067094802856,
                0,
                0,
                0.7071068286895752
            ],
            "translation" : [
                -0.02028168924152851,
                0.14247912168502808,
                -0.0022535212337970734
            ]
        }
    ],
    "materials" : [
        {
            "doubleSided" : true,
            "name" : "Material.001",
            "normalTexture" : {
                "index" : 0
            },
            "pbrMetallicRoughness" : {
                "baseColorFactor" : [
                    0.00719347083941102,
                    0.00719347083941102,
                    0.00719347083941102,
                    1
                ],
                "metallicFactor" : 0,
                "roughnessFactor" : 0.5
            }
        },
        {
            "doubleSided" : true,
            "extensions" : {
                "KHR_materials_specular" : {
                    "specularColorFactor" : [
                        0,
                        0,
                        0
                    ]
                },
                "KHR_materials_ior" : {
                    "ior" : 0
                }
            },
            "name" : "_1_ARD_front",
            "pbrMetallicRoughness" : {
                "baseColorTexture" : {
                    "index" : 1
                },
                "metallicFactor" : 0
            }
        },
        {
            "doubleSided" : true,
            "extensions" : {
                "KHR_materials_specular" : {
                    "specularColorFactor" : [
                        0,
                        0,
                        0
                    ]
                },
                "KHR_materials_ior" : {
                    "ior" : 0
                }
            },
            "name" : "_1_ARD_back",
            "pbrMetallicRoughness" : {
                "baseColorFactor" : [
                    0.996078372001648,
                    0.9019607901573181,
                    0.6627451181411743,
                    1
                ],
                "metallicFactor" : 0,
                "roughnessFactor" : 0.5
            }
        },
        {
            "doubleSided" : true,
            "extensions" : {
                "KHR_materials_specular" : {
                    "specularColorFactor" : [
                        0,
                        0,
                        0
                    ]
                },
                "KHR_materials_ior" : {
                    "ior" : 0
                }
            },
            "name" : "_1_ARD_edge",
            "pbrMetallicRoughness" : {
                "baseColorTexture" : {
                    "index" : 2
                },
                "metallicFactor" : 0,
                "roughnessFactor" : 0.5
            }
        }
    ],
    "meshes" : [
        {
            "name" : "Sphere",
            "primitives" : [
                {
                    "attributes" : {
                        "POSITION" : 0,
                        "NORMAL" : 1,
                        "TEXCOORD_0" : 2
                    },
                    "indices" : 3,
                    "material" : 0
                }
            ]
        },
        {
            "name" : "_1_ARD-geom",
            "primitives" : [
                {
                    "attributes" : {
                        "POSITION" : 4,
                        "NORMAL" : 5,
                        "TEXCOORD_0" : 6
                    },
                    "indices" : 7,
                    "material" : 1
                },
                {
                    "attributes" : {
                        "POSITION" : 8,
                        "NORMAL" : 9,
                        "TEXCOORD_0" : 10
                    },
                    "indices" : 11,
                    "material" : 2
                },
                {
                    "attributes" : {
                        "POSITION" : 12,
                        "NORMAL" : 13,
                        "TEXCOORD_0" : 14
                    },
                    "indices" : 15,
                    "material" : 3
                }
            ]
        }
    ],
    "textures" : [
        {
            "sampler" : 0,
            "source" : 0
        },
        {
            "sampler" : 0,
            "source" : 1
        },
        {
            "sampler" : 0,
            "source" : 2
        }
    ],
    "images" : [
        {
            "bufferView" : 4,
            "mimeType" : "image/png",
            "name" : "aaa"
        },
        {
            "bufferView" : 9,
            "mimeType" : "image/jpeg",
            "name" : "11"
        },
        {
            "bufferView" : 18,
            "mimeType" : "image/png",
            "name" : "_1_ARD-I1"
        }
    ],
    "accessors" : [
        {
            "bufferView" : 0,
            "componentType" : 5126,
            "count" : 18889,
            "max" : [
                1.0056692361831665,
                1.4621816873550415,
                7.195743083953857
            ],
            "min" : [
                -1.0056692361831665,
                -0.5691046118736267,
                -6.891343593597412
            ],
            "type" : "VEC3"
        },
        {
            "bufferView" : 1,
            "componentType" : 5126,
            "count" : 18889,
            "type" : "VEC3"
        },
        {
            "bufferView" : 2,
            "componentType" : 5126,
            "count" : 18889,
            "type" : "VEC2"
        },
        {
            "bufferView" : 3,
            "componentType" : 5123,
            "count" : 111936,
            "type" : "SCALAR"
        },
        {
            "bufferView" : 5,
            "componentType" : 5126,
            "count" : 2016,
            "max" : [
                0.11582856625318527,
                0.1278993785381317,
                0.26962020993232727
            ],
            "min" : [
                -0.0814158022403717,
                -0.12027626484632492,
                -0.0885077714920044
            ],
            "type" : "VEC3"
        },
        {
            "bufferView" : 6,
            "componentType" : 5126,
            "count" : 2016,
            "type" : "VEC3"
        },
        {
            "bufferView" : 7,
            "componentType" : 5126,
            "count" : 2016,
            "type" : "VEC2"
        },
        {
            "bufferView" : 8,
            "componentType" : 5123,
            "count" : 3636,
            "type" : "SCALAR"
        },
        {
            "bufferView" : 10,
            "componentType" : 5126,
            "count" : 1697,
            "max" : [
                0.1141892597079277,
                0.12631186842918396,
                0.26756569743156433
            ],
            "min" : [
                -0.07940629124641418,
                -0.11875595897436142,
                -0.08742114901542664
            ],
            "type" : "VEC3"
        },
        {
            "bufferView" : 11,
            "componentType" : 5126,
            "count" : 1697,
            "type" : "VEC3"
        },
        {
            "bufferView" : 12,
            "componentType" : 5126,
            "count" : 1697,
            "type" : "VEC2"
        },
        {
            "bufferView" : 13,
            "componentType" : 5123,
            "count" : 3636,
            "type" : "SCALAR"
        },
        {
            "bufferView" : 14,
            "componentType" : 5126,
            "count" : 1923,
            "max" : [
                0.11489862203598022,
                0.1278993785381317,
                0.26962020993232727
            ],
            "min" : [
                -0.0814158022403717,
                -0.12027620524168015,
                -0.0885077714920044
            ],
            "type" : "VEC3"
        },
        {
            "bufferView" : 15,
            "componentType" : 5126,
            "count" : 1923,
            "type" : "VEC3"
        },
        {
            "bufferView" : 16,
            "componentType" : 5126,
            "count" : 1923,
            "type" : "VEC2"
        },
        {
            "bufferView" : 17,
            "componentType" : 5123,
            "count" : 3294,
            "type" : "SCALAR"
        }
    ],
    "bufferViews" : [
        {
            "buffer" : 0,
            "byteLength" : 226668,
            "byteOffset" : 0,
            "target" : 34962
        },
        {
            "buffer" : 0,
            "byteLength" : 226668,
            "byteOffset" : 226668,
            "target" : 34962
        },
        {
            "buffer" : 0,
            "byteLength" : 151112,
            "byteOffset" : 453336,
            "target" : 34962
        },
        {
            "buffer" : 0,
            "byteLength" : 223872,
            "byteOffset" : 604448,
            "target" : 34963
        },
        {
            "buffer" : 0,
            "byteLength" : 29130,
            "byteOffset" : 828320
        },
        {
            "buffer" : 0,
            "byteLength" : 24192,
            "byteOffset" : 857452,
            "target" : 34962
        },
        {
            "buffer" : 0,
            "byteLength" : 24192,
            "byteOffset" : 881644,
            "target" : 34962
        },
        {
            "buffer" : 0,
            "byteLength" : 16128,
            "byteOffset" : 905836,
            "target" : 34962
        },
        {
            "buffer" : 0,
            "byteLength" : 7272,
            "byteOffset" : 921964,
            "target" : 34963
        },
        {
            "buffer" : 0,
            "byteLength" : 213033,
            "byteOffset" : 929236
        },
        {
            "buffer" : 0,
            "byteLength" : 20364,
            "byteOffset" : 1142272,
            "target" : 34962
        },
        {
            "buffer" : 0,
            "byteLength" : 20364,
            "byteOffset" : 1162636,
            "target" : 34962
        },
        {
            "buffer" : 0,
            "byteLength" : 13576,
            "byteOffset" : 1183000,
            "target" : 34962
        },
        {
            "buffer" : 0,
            "byteLength" : 7272,
            "byteOffset" : 1196576,
            "target" : 34963
        },
        {
            "buffer" : 0,
            "byteLength" : 23076,
            "byteOffset" : 1203848,
            "target" : 34962
        },
        {
            "buffer" : 0,
            "byteLength" : 23076,
            "byteOffset" : 1226924,
            "target" : 34962
        },
        {
            "buffer" : 0,
            "byteLength" : 15384,
            "byteOffset" : 1250000,
            "target" : 34962
        },
        {
            "buffer" : 0,
            "byteLength" : 6588,
            "byteOffset" : 1265384,
            "target" : 34963
        },
        {
            "buffer" : 0,
            "byteLength" : 767,
            "byteOffset" : 1271972
        }
    ],
    "samplers" : [
        {
            "magFilter" : 9729,
            "minFilter" : 9987
        }
    ],
    "buffers" : [
        {
            "byteLength" : 1272740,
            "uri" : "data:application/octet-stream;base64,"
        }
    ]
}
