{
    "asset" : {
        "generator" : "Khronos glTF Blender I/O v3.3.27",
        "version" : "2.0"
    },
    "extensionsUsed" : [
        "KHR_materials_specular",
        "KHR_materials_ior"
    ],
    "scene" : 0,
    "scenes" : [
        {
            "name" : "Scene",
            "nodes" : [
                0,
                1
            ]
        }
    ],
    "nodes" : [
        {
            "mesh" : 0,
            "name" : "Sphere"
        },
        {
            "mesh" : 1,
            "name" : "_1_ARD-node"
        }
    ],
    "materials" : [
        {
            "doubleSided" : true,
            "name" : "Material.001",
            "normalTexture" : {
                "index" : 0
            },
            "pbrMetallicRoughness" : {
                "baseColorFactor" : [
                    0.00719347083941102,
                    0.00719347083941102,
                    0.00719347083941102,
                    1
                ],
                "metallicFactor" : 0,
                "roughnessFactor" : 0.5
            }
        },
        {
            "doubleSided" : true,
            "extensions" : {
                "KHR_materials_specular" : {
                    "specularColorFactor" : [
                        0,
                        0,
                        0
                    ]
                },
                "KHR_materials_ior" : {
                    "ior" : 0
                }
            },
            "name" : "_1_ARD_front",
            "pbrMetallicRoughness" : {
                "baseColorTexture" : {
                    "index" : 1
                },
                "metallicFactor" : 0
            }
        },
        {
            "doubleSided" : true,
            "extensions" : {
                "KHR_materials_specular" : {
                    "specularColorFactor" : [
                        0,
                        0,
                        0
                    ]
                },
                "KHR_materials_ior" : {
                    "ior" : 0
                }
            },
            "name" : "_1_ARD_back",
            "pbrMetallicRoughness" : {
                "baseColorFactor" : [
                    0.996078372001648,
                    0.9019607901573181,
                    0.6627451181411743,
                    1
                ],
                "metallicFactor" : 0,
                "roughnessFactor" : 0.5
            }
        },
        {
            "doubleSided" : true,
            "extensions" : {
                "KHR_materials_specular" : {
                    "specularColorFactor" : [
                        0,
                        0,
                        0
                    ]
                },
                "KHR_materials_ior" : {
                    "ior" : 0
                }
            },
            "name" : "_1_ARD_edge",
            "pbrMetallicRoughness" : {
                "baseColorTexture" : {
                    "index" : 2
                },
                "metallicFactor" : 0,
                "roughnessFactor" : 0.5
            }
        }
    ],
    "meshes" : [
        {
            "name" : "Sphere",
            "primitives" : [
                {
                    "attributes" : {
                        "POSITION" : 0,
                        "NORMAL" : 1,
                        "TEXCOORD_0" : 2
                    },
                    "indices" : 3,
                    "material" : 0
                }
            ]
        },
        {
            "name" : "_1_ARD-geom",
            "primitives" : [
                {
                    "attributes" : {
                        "POSITION" : 4,
                        "NORMAL" : 5,
                        "TEXCOORD_0" : 6
                    },
                    "indices" : 7,
                    "material" : 1
                },
                {
                    "attributes" : {
                        "POSITION" : 8,
                        "NORMAL" : 9,
                        "TEXCOORD_0" : 10
                    },
                    "indices" : 11,
                    "material" : 2
                },
                {
                    "attributes" : {
                        "POSITION" : 12,
                        "NORMAL" : 13,
                        "TEXCOORD_0" : 14
                    },
                    "indices" : 15,
                    "material" : 3
                }
            ]
        }
    ],
    "textures" : [
        {
            "sampler" : 0,
            "source" : 0
        },
        {
            "sampler" : 0,
            "source" : 1
        },
        {
            "sampler" : 0,
            "source" : 2
        }
    ],
    "images" : [
        {
            "bufferView" : 4,
            "mimeType" : "image/png",
            "name" : "aaa"
        },
        {
            "bufferView" : 9,
            "mimeType" : "image/jpeg",
            "name" : "2"
        },
        {
            "bufferView" : 18,
            "mimeType" : "image/png",
            "name" : "_1_ARD-I1"
        }
    ],
    "accessors" : [
        {
            "bufferView" : 0,
            "componentType" : 5126,
            "count" : 18889,
            "max" : [
                0.00925643090158701,
                0.24103480577468872,
                0.06798277795314789
            ],
            "min" : [
                -0.01055559329688549,
                0.22213123738765717,
                -0.06310727447271347
            ],
            "type" : "VEC3"
        },
        {
            "bufferView" : 1,
            "componentType" : 5126,
            "count" : 18889,
            "type" : "VEC3"
        },
        {
            "bufferView" : 2,
            "componentType" : 5126,
            "count" : 18889,
            "type" : "VEC2"
        },
        {
            "bufferView" : 3,
            "componentType" : 5123,
            "count" : 111936,
            "type" : "SCALAR"
        },
        {
            "bufferView" : 5,
            "componentType" : 5126,
            "count" : 2023,
            "max" : [
                0.09554687887430191,
                0.23098689317703247,
                0.12564586102962494
            ],
            "min" : [
                -0.10169748961925507,
                -0.1271410882472992,
                -0.1225297600030899
            ],
            "type" : "VEC3"
        },
        {
            "bufferView" : 6,
            "componentType" : 5126,
            "count" : 2023,
            "type" : "VEC3"
        },
        {
            "bufferView" : 7,
            "componentType" : 5126,
            "count" : 2023,
            "type" : "VEC2"
        },
        {
            "bufferView" : 8,
            "componentType" : 5123,
            "count" : 3636,
            "type" : "SCALAR"
        },
        {
            "bufferView" : 10,
            "componentType" : 5126,
            "count" : 1749,
            "max" : [
                0.09390757232904434,
                0.2299002707004547,
                0.12405835092067719
            ],
            "min" : [
                -0.09968797862529755,
                -0.12508657574653625,
                -0.12100948393344879
            ],
            "type" : "VEC3"
        },
        {
            "bufferView" : 11,
            "componentType" : 5126,
            "count" : 1749,
            "type" : "VEC3"
        },
        {
            "bufferView" : 12,
            "componentType" : 5126,
            "count" : 1749,
            "type" : "VEC2"
        },
        {
            "bufferView" : 13,
            "componentType" : 5123,
            "count" : 3636,
            "type" : "SCALAR"
        },
        {
            "bufferView" : 14,
            "componentType" : 5126,
            "count" : 1942,
            "max" : [
                0.09461693465709686,
                0.23098689317703247,
                0.12564586102962494
            ],
            "min" : [
                -0.10169748961925507,
                -0.1271410882472992,
                -0.12252973020076752
            ],
            "type" : "VEC3"
        },
        {
            "bufferView" : 15,
            "componentType" : 5126,
            "count" : 1942,
            "type" : "VEC3"
        },
        {
            "bufferView" : 16,
            "componentType" : 5126,
            "count" : 1942,
            "type" : "VEC2"
        },
        {
            "bufferView" : 17,
            "componentType" : 5123,
            "count" : 3294,
            "type" : "SCALAR"
        }
    ],
    "bufferViews" : [
        {
            "buffer" : 0,
            "byteLength" : 226668,
            "byteOffset" : 0,
            "target" : 34962
        },
        {
            "buffer" : 0,
            "byteLength" : 226668,
            "byteOffset" : 226668,
            "target" : 34962
        },
        {
            "buffer" : 0,
            "byteLength" : 151112,
            "byteOffset" : 453336,
            "target" : 34962
        },
        {
            "buffer" : 0,
            "byteLength" : 223872,
            "byteOffset" : 604448,
            "target" : 34963
        },
        {
            "buffer" : 0,
            "byteLength" : 29130,
            "byteOffset" : 828320
        },
        {
            "buffer" : 0,
            "byteLength" : 24276,
            "byteOffset" : 857452,
            "target" : 34962
        },
        {
            "buffer" : 0,
            "byteLength" : 24276,
            "byteOffset" : 881728,
            "target" : 34962
        },
        {
            "buffer" : 0,
            "byteLength" : 16184,
            "byteOffset" : 906004,
            "target" : 34962
        },
        {
            "buffer" : 0,
            "byteLength" : 7272,
            "byteOffset" : 922188,
            "target" : 34963
        },
        {
            "buffer" : 0,
            "byteLength" : 218261,
            "byteOffset" : 929460
        },
        {
            "buffer" : 0,
            "byteLength" : 20988,
            "byteOffset" : 1147724,
            "target" : 34962
        },
        {
            "buffer" : 0,
            "byteLength" : 20988,
            "byteOffset" : 1168712,
            "target" : 34962
        },
        {
            "buffer" : 0,
            "byteLength" : 13992,
            "byteOffset" : 1189700,
            "target" : 34962
        },
        {
            "buffer" : 0,
            "byteLength" : 7272,
            "byteOffset" : 1203692,
            "target" : 34963
        },
        {
            "buffer" : 0,
            "byteLength" : 23304,
            "byteOffset" : 1210964,
            "target" : 34962
        },
        {
            "buffer" : 0,
            "byteLength" : 23304,
            "byteOffset" : 1234268,
            "target" : 34962
        },
        {
            "buffer" : 0,
            "byteLength" : 15536,
            "byteOffset" : 1257572,
            "target" : 34962
        },
        {
            "buffer" : 0,
            "byteLength" : 6588,
            "byteOffset" : 1273108,
            "target" : 34963
        },
        {
            "buffer" : 0,
            "byteLength" : 767,
            "byteOffset" : 1279696
        }
    ],
    "samplers" : [
        {
            "magFilter" : 9729,
            "minFilter" : 9987
        }
    ],
    "buffers" : [
        {
            "byteLength" : 1280464,
            "uri" : "data:application/octet-stream;base64,"
        }
    ]
}
